<?xml version="1.0" encoding="UTF-8" standalone="no"?>
<svg
   xmlns:dc="http://purl.org/dc/elements/1.1/"
   xmlns:cc="http://creativecommons.org/ns#"
   xmlns:rdf="http://www.w3.org/1999/02/22-rdf-syntax-ns#"
   xmlns:svg="http://www.w3.org/2000/svg"
   xmlns="http://www.w3.org/2000/svg"
   xmlns:sodipodi="http://sodipodi.sourceforge.net/DTD/sodipodi-0.dtd"
   xmlns:inkscape="http://www.inkscape.org/namespaces/inkscape"
   viewBox="0 0 614.85101 250"
   height="250"
   width="614.85101"
   id="svg2"
   version="1.1"
   sodipodi:docname="mianfg-handwritten-logo-white.svg"
   inkscape:version="0.92.3 (2405546, 2018-03-11)">
  <sodipodi:namedview
     pagecolor="#ffffff"
     bordercolor="#666666"
     borderopacity="1"
     objecttolerance="10"
     gridtolerance="10"
     guidetolerance="10"
     inkscape:pageopacity="0"
     inkscape:pageshadow="2"
     inkscape:window-width="1920"
     inkscape:window-height="1004"
     id="namedview11"
     showgrid="false"
     inkscape:zoom="0.66845462"
     inkscape:cx="307.42551"
     inkscape:cy="125"
     inkscape:window-x="0"
     inkscape:window-y="48"
     inkscape:window-maximized="1"
     inkscape:current-layer="svg2" />
  <metadata
     id="metadata8">
    <rdf:RDF>
      <cc:Work
         rdf:about="">
        <dc:format>image/svg+xml</dc:format>
        <dc:type
           rdf:resource="http://purl.org/dc/dcmitype/StillImage" />
        <dc:title></dc:title>
      </cc:Work>
    </rdf:RDF>
  </metadata>
  <defs
     id="defs6">
    <clipPath
       id="clipPath827"
       clipPathUnits="userSpaceOnUse">
      <rect
         y="-229.53333"
         x="-803.21014"
         height="813.90179"
         width="1311.0635"
         id="rect829"
         style="fill:#000000;fill-opacity:0.28417269;stroke:none;stroke-width:20.40944862;stroke-miterlimit:4;stroke-dasharray:none;stroke-opacity:1" />
    </clipPath>
    <clipPath
       id="clipPath844"
       clipPathUnits="userSpaceOnUse">
      <rect
         y="-122.61684"
         x="-101.57067"
         height="620.11566"
         width="542.6012"
         id="rect846"
         style="fill:#000000;fill-opacity:0.28417269;stroke:none;stroke-width:20.40944862;stroke-miterlimit:4;stroke-dasharray:none;stroke-opacity:1" />
    </clipPath>
  </defs>
  <path
     style="color:#000000;font-style:normal;font-variant:normal;font-weight:normal;font-stretch:normal;font-size:medium;line-height:normal;font-family:sans-serif;font-variant-ligatures:normal;font-variant-position:normal;font-variant-caps:normal;font-variant-numeric:normal;font-variant-alternates:normal;font-feature-settings:normal;text-indent:0;text-align:start;text-decoration:none;text-decoration-line:none;text-decoration-style:solid;text-decoration-color:#000000;letter-spacing:normal;word-spacing:normal;text-transform:none;writing-mode:lr-tb;direction:ltr;text-orientation:mixed;dominant-baseline:auto;baseline-shift:baseline;text-anchor:start;white-space:normal;shape-padding:0;clip-rule:nonzero;display:inline;overflow:visible;visibility:visible;opacity:1;isolation:auto;mix-blend-mode:normal;color-interpolation:sRGB;color-interpolation-filters:linearRGB;solid-color:#000000;solid-opacity:1;vector-effect:none;fill:#ffffff;fill-opacity:1;fill-rule:evenodd;stroke:none;stroke-width:3.48143029;stroke-linecap:butt;stroke-linejoin:miter;stroke-miterlimit:4;stroke-dasharray:none;stroke-dashoffset:0;stroke-opacity:1;color-rendering:auto;image-rendering:auto;shape-rendering:auto;text-rendering:auto;enable-background:accumulate"
     d="M 411.33984 0.013671875 C 410.03494 0.089255256 408.79534 0.453269 407.69727 1.2011719 C 405.50671 2.6938165 404.0634 5.4918375 402.76172 9.1171875 C 401.46004 12.742538 400.44982 17.225969 399.91602 22.033203 C 399.80304 23.051953 399.52756 25.290717 399.30859 26.957031 C 398.35363 34.228019 397.7191 49.893218 397.81641 63.021484 C 397.86491 69.557146 397.88068 72.913134 397.80078 74.519531 C 397.77918 74.954336 397.77405 74.911899 397.74805 75.082031 C 397.34239 75.180541 396.62012 75.354953 395.36719 75.552734 C 393.83562 75.794499 391.90727 76.053122 389.91016 76.289062 C 385.91592 76.760946 381.56461 77.138672 379.67578 77.138672 C 377.77723 77.138672 376.63004 77.152612 375.74219 77.265625 C 375.29826 77.322135 374.9024 77.389091 374.44336 77.619141 C 373.98432 77.84919 373.48839 78.38045 373.30469 78.857422 L 373.30273 78.857422 L 373.30273 78.859375 C 373.07994 79.441158 372.79269 80.126456 373.09961 81.066406 C 373.40589 82.004397 374.13147 82.430136 374.66016 82.712891 C 374.66016 82.712891 374.66211 82.712891 374.66211 82.712891 C 374.66211 82.712891 374.66406 82.714844 374.66406 82.714844 C 375.25811 83.032987 375.5149 83.01152 375.92773 83.072266 C 376.34192 83.133206 376.8221 83.178014 377.37891 83.214844 C 378.49252 83.288504 379.90721 83.325716 381.5 83.318359 C 386.23692 83.297579 389.07312 83.113567 397.43555 82.285156 L 398.19727 82.208984 L 398.27344 83.248047 C 398.38417 84.762301 398.84419 91.717196 399.29102 98.638672 C 400.77101 121.57116 403.07888 144.12132 405.24414 156.62305 C 405.76399 159.62187 406.43633 164.17953 406.72266 166.63281 C 407.0247 169.22364 407.20539 170.80679 408 172.17578 C 408.3973 172.86028 409.05922 173.46142 409.78125 173.75391 C 410.50328 174.0464 411.19314 174.08984 411.88477 174.08984 C 412.88334 174.08984 413.88106 173.97615 414.80469 173.42188 C 415.72832 172.86759 416.36702 171.88154 416.67188 170.82227 C 417.28156 168.70371 417.1097 165.9909 416.69727 161.49023 C 416.39801 158.22406 415.42712 149.61245 414.85938 144.06641 C 415.00468 144.39021 415.06563 144.79981 415.22656 145.10742 C 416.82059 148.15426 419.28393 150.37756 422.38281 151.35547 C 425.11988 152.2192 428.31813 151.97486 431.76367 150.98633 C 431.538 151.26303 431.3908 151.45806 431.15234 151.74609 C 429.15165 154.16403 427.13375 156.70576 426.39844 157.79883 C 425.8554 158.60666 424.14987 161.04823 422.66602 163.13867 C 410.29524 180.5679 402.2938 199.72679 399.53906 215.66406 C 398.16169 223.6327 398.08372 230.80235 399.53516 236.625 C 400.9867 242.44765 404.09514 247.01874 408.97656 249.14062 C 412.78373 250.79527 417.25306 249.94914 421.80273 247.54883 C 426.35241 245.14852 431.14007 241.14607 435.94531 235.93359 C 445.55579 225.50864 455.20346 210.20977 462.14062 193.0293 C 462.80798 191.37616 463.7796 189.08668 464.25781 188.0332 L 464.25781 188.03125 C 464.51814 187.4589 464.75354 186.91465 464.93164 186.47656 C 465.02074 186.25729 465.09514 186.0665 465.15625 185.89453 C 465.18685 185.80853 465.21399 185.7287 465.24219 185.63086 C 465.25842 185.57449 465.28302 185.52102 465.30273 185.41992 C 465.29672 185.42308 465.28839 185.42664 465.28711 185.43164 C 465.28311 185.44734 465.28788 185.43064 465.29688 185.40234 C 465.29838 185.39728 465.30291 185.38089 465.30469 185.375 C 465.3165 185.30025 465.33008 185.23321 465.33008 185.05859 C 465.33008 185.24632 465.32243 185.30109 465.31445 185.34766 C 465.3331 185.28644 465.35564 185.21204 465.39258 185.09961 C 465.48278 184.82508 465.61792 184.42547 465.78711 183.93945 C 466.12548 182.96743 466.59601 181.64849 467.11328 180.22852 C 472.98879 164.10482 477.96064 142.87039 479.44336 127.49805 C 479.84645 123.32152 479.97155 121.6813 480.34375 120.91016 C 480.71595 120.13901 481.70957 119.36086 484.48047 116.97656 C 487.13583 114.69131 490.37241 111.97429 491.57031 111.01953 C 492.83714 110.01081 496.26675 107.2607 499.20508 104.89648 C 507.65191 98.104033 529.08472 81.919715 538.99414 74.853516 C 540.37414 73.869582 543.67531 71.481265 546.35547 69.527344 C 553.09059 64.617021 556.36519 62.290955 561.46289 58.796875 C 565.4032 56.09748 568.35956 54.039565 575.22656 49.21875 C 576.41232 48.386264 579.49045 46.168349 582.11914 44.251953 C 584.73042 42.348394 587.50463 40.389607 587.83789 40.177734 C 590.89913 38.237686 591.5568 34.537164 590.56055 31.667969 C 589.56429 28.798773 586.67626 26.350406 583.12305 26.988281 C 581.93952 27.200726 580.6852 27.774781 578.96875 28.619141 C 577.2523 29.4635 575.19347 30.584658 572.95312 31.886719 C 568.47244 34.490839 563.27585 37.810753 558.80273 41.011719 C 538.85917 55.283776 514.90561 73.218634 505.20508 81.15625 C 502.65158 83.245266 499.23634 85.985188 497.66797 87.203125 C 495.989 88.507205 491.8774 91.920459 488.40039 94.890625 C 483.86623 98.76299 481.58069 100.70598 480.07227 101.96094 C 479.99417 101.1347 479.91583 100.35181 479.83398 99.339844 C 479.32301 93.030683 478.57547 88.003328 477.60938 84.423828 C 477.12633 82.634078 476.60316 81.2082 475.92578 80.085938 C 475.2484 78.963673 474.23935 77.900391 472.74609 77.900391 C 472.31818 77.900391 471.72428 77.901119 471.06641 78.224609 C 470.40853 78.548099 469.9343 79.126399 469.60352 79.71875 C 468.94195 80.903452 468.45474 82.502769 467.46094 85.605469 C 465.60544 91.396428 461.96821 101.8217 460.00195 106.98828 C 452.29073 127.25218 439.65495 141.7919 428.91602 144.32422 C 427.22743 144.72251 425.92045 144.7499 424.98242 144.52344 C 424.0444 144.29698 423.42796 143.88213 422.84766 143.0625 C 421.68704 141.42324 420.9745 137.81921 421.19922 132.16797 C 422.16103 108.02514 437.94224 83.904151 458.52734 74.865234 C 460.52944 73.986121 462.05691 72.966401 463.01562 71.630859 C 463.495 70.963089 463.84975 70.157168 463.81641 69.238281 C 463.78311 68.319395 463.27467 67.415547 462.58789 66.845703 C 461.36027 65.827648 460.25856 65.949952 458.52539 65.945312 C 456.79222 65.940713 454.47654 66.1101 451.4082 66.453125 C 445.27152 67.139174 436.14651 68.529216 423.17383 70.71875 C 418.59942 71.491082 414.4138 72.16696 411.36523 72.632812 C 409.93148 72.851906 408.80722 73.015767 407.96289 73.128906 C 407.93599 72.898823 407.90941 72.763461 407.88281 72.476562 C 407.75969 71.145386 407.64492 69.243032 407.54492 66.960938 C 407.34492 62.396746 407.20197 56.298294 407.13086 49.955078 C 406.98863 37.268646 407.16646 23.391354 407.66992 19.189453 C 408.11825 15.446836 408.7959 12.271532 409.56445 10.007812 C 410.33301 7.7440931 411.4148 6.520278 411.47656 6.4902344 C 411.97705 6.2467963 413.90467 6.4109194 415.86328 7.4980469 C 417.82189 8.5851741 419.74123 10.38485 420.61133 12.074219 C 421.06547 12.955801 421.57935 13.643285 422.29102 14.132812 C 423.00309 14.62262 424.1646 14.881725 425.09766 14.347656 C 426.03072 13.813588 426.37007 12.868191 426.44727 12.037109 C 426.52447 11.206028 426.37427 10.345845 426.03711 9.40625 C 424.77854 5.8993699 421.53458 3.2128553 418.04883 1.5820312 C 416.30595 0.76661931 414.44994 0.17160558 412.66406 0.03125 C 412.21759 -0.003838895 411.77481 -0.011522585 411.33984 0.013671875 z M 465.31445 185.34766 C 465.31237 185.35449 465.3065 185.36899 465.30469 185.375 C 465.30302 185.38558 465.30454 185.41068 465.30273 185.41992 C 465.30784 185.41724 465.30915 185.37858 465.31445 185.34766 z M 213.6543 1.4921875 C 211.74025 1.427598 209.8659 2.1675046 208.64062 3.5292969 C 206.77388 5.6040394 206.75727 9.5715047 208.97461 11.789062 L 208.97656 11.789062 C 210.73171 13.544427 213.6472 14.14765 215.8418 13.095703 C 218.03686 12.043533 219.3418 9.6566457 219.3418 7.2304688 C 219.3418 5.611141 218.52108 3.305398 216.60742 2.28125 L 216.60547 2.28125 C 215.92441 1.9169656 215.20284 1.6837208 214.47461 1.5703125 C 214.2013 1.5277493 213.92773 1.5014146 213.6543 1.4921875 z M 165.2832 32.921875 C 164.82209 32.937776 164.36299 33.019287 163.92383 33.171875 C 162.16716 33.782228 160.61907 35.135411 158.96875 37.078125 C 155.66812 40.963553 152.00857 47.411992 147.91406 56.412109 C 146.22887 60.118247 143.37733 68.990473 141.26562 76.273438 C 140.98988 66.263236 140.17717 57.011902 139.00586 50.005859 C 138.40119 46.389092 137.71257 43.364593 136.93164 41.056641 C 136.54118 39.902664 136.13359 38.927196 135.65234 38.111328 C 135.17109 37.29546 134.64109 36.573326 133.69141 36.140625 C 132.30108 35.507176 130.70566 35.538951 129.2793 36.066406 C 127.85294 36.593863 126.53218 37.5535 125.22266 38.835938 C 122.60362 41.400813 120.00326 45.31828 117.39648 50.365234 C 112.6845 59.488061 108.06533 72.415568 104.29688 87.234375 C 103.60889 77.185424 102.64026 67.567083 101.45898 59.876953 C 100.77966 55.454538 100.05197 51.630228 99.298828 48.611328 C 98.545684 45.592428 97.881491 43.453851 96.832031 41.980469 C 96.142622 41.012011 95.476108 39.962713 94.007812 39.595703 C 93.273666 39.412198 92.458822 39.539823 91.796875 39.839844 C 91.134928 40.139862 90.561371 40.577839 89.945312 41.146484 C 87.481084 43.421064 84.149657 48.050667 77.703125 57.017578 C 73.488657 62.879985 69.776601 67.936902 66.949219 71.685547 C 65.535528 73.559869 64.341926 75.108096 63.423828 76.257812 C 62.50573 77.407531 61.793671 78.212094 61.634766 78.361328 L 61.632812 78.363281 C 60.824101 79.123712 60.302622 80.036507 60.169922 81.078125 C 60.103572 81.598934 60.140172 82.177062 60.40625 82.75 C 60.672328 83.322938 61.217278 83.848228 61.841797 84.087891 C 62.629531 84.39008 63.365439 84.204529 63.90625 83.964844 C 64.447061 83.725159 64.911678 83.395672 65.423828 82.972656 C 66.448128 82.126624 67.644581 80.877197 69.195312 79.083984 C 72.296775 75.49756 76.762735 69.748347 83.201172 61.138672 C 86.158416 57.184358 88.87539 53.588949 90.867188 50.986328 C 91.437901 50.240592 91.791025 49.791438 92.230469 49.224609 C 92.348566 49.751482 92.450098 50.073947 92.576172 50.748047 C 93.123518 53.674637 93.723261 57.89476 94.271484 62.857422 C 95.258209 71.784735 95.676589 84.929052 95.982422 117.42773 C 96.172514 137.68342 96.369411 149.61486 96.783203 156.78516 C 96.990099 160.37031 97.244211 162.76112 97.615234 164.49023 C 97.986258 166.21935 98.507171 167.42494 99.443359 168.23047 L 99.445312 168.23047 C 100.26329 168.93353 101.24323 169.49009 102.39258 169.46484 C 103.54192 169.43964 104.51092 168.82043 105.26562 168.06641 L 105.26562 168.06445 L 106.71094 166.61719 L 106.71484 155.29492 C 106.72714 118.97493 111.32499 93.062393 123.04688 63.107422 C 125.22344 57.544841 127.38212 52.668317 129.07617 49.349609 C 129.59567 48.331889 129.94974 47.80128 130.35938 47.113281 C 130.50725 47.803327 130.65962 48.433375 130.79297 49.400391 C 131.18721 52.259271 131.49174 56.233113 131.68555 61.033203 C 132.07316 70.633384 132.02189 83.558815 131.45117 97.884766 C 130.86991 112.47934 130.61818 125.29593 130.6875 134.81641 C 130.7222 139.57664 130.83668 143.50919 131.0332 146.45508 C 131.1315 147.92802 131.24993 149.15276 131.39648 150.13672 C 131.54304 151.12068 131.63498 151.79465 132.04688 152.56445 C 133.20014 154.71594 135.81575 155.11481 137.83008 153.98438 L 137.83203 153.98438 C 138.26219 153.74291 138.85123 153.30259 139.23047 152.67773 C 139.60971 152.05288 139.79098 151.37179 139.9375 150.51367 C 140.23054 148.79744 140.37819 146.18826 140.63086 141.3457 C 142.35695 108.22932 148.42501 81.636819 161.125 51.513672 C 161.76808 49.987781 162.78101 48.025931 163.71875 46.285156 C 163.77955 48.143461 163.83539 50.121683 163.82617 52.757812 C 163.80257 59.496879 163.54882 68.155824 163.07617 75.71875 C 161.99667 92.988562 162.47885 119.77646 164.13281 130.83203 C 165.79306 141.93028 169.49585 149.38904 174.97266 152.21484 C 177.71106 153.62775 180.89356 153.67199 183.88281 152.33008 C 186.87207 150.98817 189.71903 148.38058 192.41797 144.54688 C 193.33266 143.24758 194.79161 140.83297 196.08008 138.60156 C 196.72431 137.48586 197.31788 136.42771 197.75977 135.5957 C 197.98071 135.1797 198.16293 134.82402 198.30469 134.52148 C 198.37559 134.37022 198.43504 134.23376 198.49219 134.08398 C 198.53232 133.97873 198.58615 133.86679 198.62109 133.63477 C 198.6192 133.63658 198.61382 133.64649 198.61328 133.64844 C 198.61179 133.6533 198.61912 133.63071 198.62109 133.625 C 198.63516 133.5277 198.65625 133.474 198.65625 133.29102 C 198.65625 133.45903 198.648 133.53067 198.63867 133.57617 C 198.67051 133.4841 198.72768 133.32999 198.80273 133.14258 C 198.95632 132.75925 199.17841 132.23986 199.42188 131.70703 C 199.92207 130.61332 200.69705 128.5744 201.33398 126.80273 C 203.33527 135.32031 207.28715 143.15456 212.19336 146.66797 C 217.52395 150.48508 223.67743 150.25572 229.05078 146.29883 C 234.21865 142.49325 238.962 135.48921 243.38672 125.61914 C 244.50221 133.7413 247.15431 140.05468 251.22852 143.75977 C 255.6839 147.81149 261.89199 148.43695 267.9082 144.98633 C 277.06018 139.73561 284.0282 130.08737 289.5293 116.03125 C 294.05069 131.31772 298.93057 142.41608 304.27148 148.93164 C 307.08453 152.36337 310.07505 154.61532 313.32617 155.38086 C 316.5773 156.1464 319.94732 155.26895 322.98438 153.00781 C 324.01401 152.24122 324.76129 151.47306 325.24219 150.59766 C 325.62444 149.90181 325.72076 148.9982 325.4668 148.13672 C 325.62683 148.63046 325.77106 149.50285 325.98242 149.90234 C 326.28711 150.47822 326.79238 151.06095 327.43359 151.36328 C 328.07481 151.66561 328.64734 151.67578 329.10742 151.67578 C 329.61893 151.67578 330.25832 151.68988 330.99219 151.27344 C 331.72605 150.85701 332.18467 150.05413 332.38086 149.34375 C 332.77323 147.923 332.75554 146.20848 332.79688 142.89844 C 332.86588 137.41765 333.73942 128.94844 334.78125 123.66016 C 337.84277 108.11334 340.66379 98.21096 345.10352 87.359375 C 346.66834 83.53417 348.75273 79.79516 350.83008 76.886719 C 352.90742 73.978278 355.12828 71.925368 356.19922 71.466797 C 356.80666 71.206757 357.19281 71.200007 357.61523 71.330078 C 358.03766 71.460149 358.55806 71.794904 359.15039 72.503906 C 360.33505 73.921911 361.63606 76.77338 362.72656 80.894531 C 364.90757 89.136833 366.41645 102.40556 367.0625 120.14453 C 367.1297 121.98867 367.20778 123.77164 367.2793 125.16602 C 367.3508 126.56039 367.3732 127.33653 367.47266 127.97852 C 367.44836 127.82139 367.50185 128.33221 367.53125 128.9082 C 367.56065 129.48419 367.59361 130.26854 367.62891 131.19727 C 367.69941 133.05471 367.77742 135.49443 367.84375 138.05859 C 367.97782 143.20152 368.04944 145.92453 368.44727 147.76367 C 368.64618 148.68324 368.96559 149.54165 369.73242 150.15234 C 370.49925 150.76304 371.37032 150.81641 371.97656 150.81641 C 373.33388 150.81641 374.64286 149.81673 375.27344 148.57812 C 375.90401 147.33953 376.2252 145.80096 376.45117 143.7168 C 376.90312 139.54847 376.86262 133.18205 376.46484 123.63477 C 375.74069 106.23311 374.03286 92.341802 371.38867 82.275391 C 368.74448 72.208979 365.29427 65.685936 360.00586 63.722656 C 355.85618 62.181946 351.22462 64.070151 347.11914 67.722656 C 343.01366 71.375162 339.20669 76.940665 336.39648 83.722656 C 335.78576 85.198636 335.12073 86.782911 334.96094 87.150391 C 333.75383 89.923501 331.32937 97.894933 330.27734 102.32031 C 329.62935 105.04893 328.9377 107.9669 328.73828 108.80859 C 328.39754 110.24572 327.81613 113.64289 327.27539 116.95117 C 327.10913 116.05489 326.86638 114.8327 326.65625 113.66797 C 326.33271 111.87359 325.55765 107.67159 324.92969 104.31055 C 324.30235 100.95869 323.44946 96.322052 323.03711 94.023438 C 320.56675 80.240167 319.2698 73.075234 318.36133 69.285156 C 317.90709 67.390117 317.64585 66.371615 317.00781 65.451172 C 316.68879 64.99095 316.09866 64.491621 315.41406 64.365234 C 314.72947 64.238848 314.24023 64.429294 313.94922 64.541016 C 313.31617 64.784154 312.98259 65.252933 312.80273 65.601562 C 312.62288 65.950193 312.54494 66.252594 312.48438 66.564453 C 312.36323 67.188171 312.33491 67.859916 312.34375 68.679688 C 312.36145 70.319231 312.56484 72.520029 312.94336 75.298828 C 317.57423 109.28499 320.86236 129.09503 324.49414 144.8125 C 324.79926 146.13322 325.03238 146.61672 325.26172 147.43945 C 324.5955 146.45451 323.46266 146.16063 322.48242 146.19141 C 321.48627 146.22271 320.44969 146.52911 319.28711 147.08398 C 317.48429 147.94444 316.61999 148.1016 315.9082 147.91992 C 315.19642 147.73824 314.16272 147.00382 312.51953 145.22852 L 312.51953 145.22656 C 308.82979 141.24156 303.98764 131.37029 300.25 120.67969 C 296.51236 109.98908 293.74517 98.336539 293.50586 90.652344 C 293.34652 85.543982 292.83849 81.401939 291.99023 78.402344 C 291.5661 76.902546 291.07542 75.681584 290.35742 74.703125 C 289.63978 73.725152 288.43736 72.891268 287.08789 73.021484 L 287.08594 73.021484 C 286.01742 73.125627 284.90548 73.817704 284.32422 74.773438 C 283.74263 75.729701 283.51843 76.829942 283.41406 78.171875 C 283.20534 80.855741 283.55267 84.637179 284.34961 90.189453 C 285.72574 99.77779 284.47867 108.23259 280.22266 117.9043 C 276.89383 125.468 272.50363 131.66481 268.29102 135.44727 C 266.18471 137.33849 264.12483 138.6154 262.35547 139.20898 C 260.58611 139.80257 259.19005 139.74865 258.00586 139.14453 C 255.73036 137.98381 253.51381 133.79468 252.32812 127.62305 C 251.14246 121.45141 250.84938 113.50887 251.39844 105.31836 C 251.94749 97.127848 253.33503 88.677797 255.44141 81.445312 C 257.54779 74.212829 260.42808 68.207482 263.61719 64.955078 C 265.4214 63.114649 266.89031 62.159513 268.38281 61.765625 C 269.87532 61.371737 271.54458 61.487263 273.90039 62.21875 C 276.02778 62.87937 277.17292 63.482789 284.46289 67.789062 C 285.77674 68.565535 286.43421 69.00571 287.32617 69.267578 C 287.77215 69.398512 288.41413 69.446651 288.96289 69.242188 C 289.51165 69.037723 289.80967 68.72748 290.00781 68.529297 C 290.81165 67.725474 290.87969 66.287122 290.51172 65.433594 C 290.14375 64.580065 289.5681 63.947501 288.86719 63.294922 C 287.46537 61.989764 285.47315 60.691702 283.19727 59.46875 C 278.6455 57.022846 273.22335 54.865854 269.17383 55.072266 C 262.8988 55.392182 257.38989 60.407233 253.02344 68.09375 C 248.65698 75.780267 245.33252 86.347811 243.625 98.669922 C 243.29555 101.04959 242.23364 104.79875 241.13672 107.38477 C 240.96139 107.79716 240.64758 108.65001 240.11914 110.07031 C 239.59036 111.49152 238.90548 113.34212 238.19336 115.28516 L 238.19336 115.28711 C 232.9994 129.46332 227.59025 138.01437 223.54688 140.51758 C 221.52518 141.76918 220.16963 141.7765 218.49414 140.67773 C 216.81865 139.57897 214.89653 136.97773 213.16211 132.73438 C 208.82685 122.12744 207.22835 105.67873 209.29102 91.724609 C 210.33931 84.628603 211.04515 75.933776 211.30664 68.755859 C 211.43738 65.166901 211.4573 61.963983 211.3457 59.5 C 211.2899 58.268009 211.20442 57.225119 211.06836 56.367188 C 210.9323 55.509256 210.99596 54.911642 210.18164 54.011719 C 209.37475 53.120064 208.2927 52.763443 207.25586 52.748047 C 206.21902 52.732647 205.10363 53.058804 204.29492 53.986328 C 203.6719 54.699725 203.52778 55.303709 203.26758 56.160156 C 203.00737 57.016603 202.75919 58.071584 202.50781 59.330078 C 202.00505 61.847066 201.49974 65.168335 201.01367 69.060547 C 200.04153 76.844971 199.15352 86.900497 198.61523 97.099609 C 197.80812 112.40568 191.1358 133.40399 184.75391 141.72461 C 183.15116 143.81373 181.72122 144.90814 180.82031 145.21289 C 179.9194 145.51764 179.52896 145.43363 178.68945 144.55859 C 177.01043 142.80853 175.06491 137.16053 174.04297 128.17969 C 172.76048 116.90205 172.59298 111.5843 172.51367 80.019531 C 172.46677 61.381705 172.37444 51.001939 171.95312 44.804688 C 171.74248 41.706061 171.45542 39.644342 170.99609 38.052734 C 170.53676 36.461126 169.82648 35.317068 169.03125 34.458984 C 168.39121 33.768357 167.55388 33.293712 166.65625 33.068359 C 166.20744 32.955683 165.74431 32.905974 165.2832 32.921875 z M 198.63867 133.57617 C 198.63795 133.57826 198.63546 133.58392 198.63477 133.58594 C 198.62506 133.61449 198.6244 133.61544 198.62109 133.625 C 198.62069 133.62781 198.62151 133.63201 198.62109 133.63477 C 198.62604 133.63003 198.63073 133.61492 198.63867 133.57617 z M 442.95703 75.621094 C 429.83 84.833766 419.09452 100.89002 414.82422 118.04102 C 413.96872 121.47728 413.45696 124.63465 413.12695 127.63672 C 412.22959 119.24059 411.67871 113.35189 410.78125 105.38867 C 410.35113 101.57276 409.75531 95.073582 409.29688 89.523438 C 409.06766 86.748364 408.87399 84.206759 408.75 82.357422 C 408.7034 81.663074 408.67674 81.184759 408.65234 80.714844 C 408.93295 80.661214 409.09913 80.624024 409.52148 80.552734 C 411.10876 80.284824 413.73319 79.887359 417.86914 79.283203 C 419.97425 78.975232 425.12176 78.208818 429.32031 77.578125 C 437.79555 76.304935 439.88773 76.037626 442.95703 75.621094 z M 471.57617 99.912109 C 471.60077 100.64871 471.62714 101.04439 471.65234 101.91406 L 471.85742 109.06055 L 470.53906 110.34375 L 470.53906 110.3418 C 469.18841 111.65192 467.31509 113.37746 465.55273 115.00781 C 467.71737 110.25195 469.78545 105.10027 471.57617 99.912109 z M 469.60547 129.90039 C 469.58677 130.01065 469.58405 130.05813 469.56445 130.17188 C 469.1092 132.80736 468.40682 136.37211 467.58398 140.13867 C 462.96925 161.26821 453.40661 187.15765 444.41211 202.96289 C 439.31434 211.92138 439.36406 211.8395 435.70117 217.35742 C 432.2204 222.60016 428.24704 227.60496 424.49219 231.61328 C 420.73734 235.6216 417.13287 238.63784 414.74219 239.84961 C 413.19911 240.63157 412.16104 240.64752 411.32422 240.30664 C 410.4874 239.96576 409.64956 239.12782 408.95117 237.53516 C 407.5544 234.34982 407.04309 228.43027 408.13281 220.85742 C 408.53576 218.05851 410.84594 209.39935 412.08008 206.16016 L 412.08008 206.1582 C 412.60372 204.78218 413.52114 202.32329 414.12891 200.66992 C 420.42673 183.52045 442.66821 154.25616 465.13477 134.02344 L 465.13477 134.02539 C 466.0319 133.21783 466.91151 132.41698 467.60938 131.77344 C 468.30723 131.1299 468.75802 130.71289 469.04102 130.41797 L 469.04297 130.41797 C 469.19947 130.25465 469.42249 130.07807 469.60547 129.90039 z "
     id="path0-36" />
</svg>
